<?xml version="1.0" standalone="no"?>
<!DOCTYPE svg PUBLIC "-//W3C//DTD SVG 20010904//EN"
 "http://www.w3.org/TR/2001/REC-SVG-20010904/DTD/svg10.dtd">
<svg version="1.0" xmlns="http://www.w3.org/2000/svg"
 width="260.000000pt" height="260.000000pt" viewBox="0 0 260.000000 260.000000"
 preserveAspectRatio="xMidYMid meet">
<metadata>
Created by potrace 1.11, written by Peter Selinger 2001-2013
</metadata>
<g transform="translate(0.000000,260.000000) scale(0.100000,-0.100000)"
fill="#000000" stroke="none">
<path d="M1086 2494 c-577 -104 -996 -606 -996 -1194 0 -673 537 -1210 1210
-1210 673 0 1210 537 1210 1210 0 592 -421 1093 -1004 1195 -109 19 -313 18
-420 -1z m255 -313 c307 -96 481 -417 505 -935 22 -470 -127 -777 -413 -851
-74 -19 -203 -19 -278 0 -175 46 -309 189 -360 384 -44 169 -26 381 45 529 93
196 258 300 459 290 71 -3 96 -9 135 -31 l47 -26 -6 32 c-49 229 -169 423
-301 487 -97 48 -226 37 -311 -26 -38 -29 -49 -30 -63 -5 -8 16 -3 25 33 56
49 44 164 101 228 115 64 13 205 4 280 -19z"/>
<path d="M1254 1462 c-69 -44 -100 -139 -114 -340 -10 -155 2 -362 25 -453 28
-110 83 -179 140 -179 38 0 87 34 113 79 51 87 64 164 69 412 6 237 -5 374
-32 415 -46 71 -143 102 -201 66z"/>
</g>
</svg>
